<svg xmlns="http://www.w3.org/2000/svg" xmlns:xlink="http://www.w3.org/1999/xlink">
    <symbol id="burgerMenu" viewBox="157 266 656 492">
        <path
            d="M177.50016 307.2h614.4a20.48 20.48 0 1 0 0-40.96h-614.4a20.48 20.48 0 1 0 0 40.96zM177.50016 757.76h614.4a20.48 20.48 0 1 0 0-40.96h-614.4a20.48 20.48 0 1 0 0 40.96zM177.50016 532.48h614.4a20.48 20.48 0 1 0 0-40.96h-614.4a20.48 20.48 0 1 0 0 40.96z"
            fill="currentColor" />
    </symbol>
    <symbol id="plus" viewBox="0 0 455 455">
        <polygon
            points="455,212.5 242.5,212.5 242.5,0 212.5,0 212.5,212.5 0,212.5 0,242.5 212.5,242.5 212.5,455 242.5,455 242.5,242.5 455,242.5" />
    </symbol>
    <symbol id="export" viewBox="0 49 493.525 396">
        <g>
            <path d="M430.557,79.556H218.44c21.622,12.688,40.255,29.729,54.859,49.906h157.258
		c7.196,0,13.063,5.863,13.063,13.06v238.662c0,7.199-5.866,13.064-13.063,13.064H191.894c-7.198,0-13.062-5.865-13.062-13.064
		V222.173c-6.027-3.1-12.33-5.715-18.845-7.732c-3.818,11.764-12.105,21.787-23.508,27.781c-2.39,1.252-4.987,2.014-7.554,2.844
		v136.119c0,34.717,28.25,62.971,62.968,62.971h238.663c34.718,0,62.969-28.254,62.969-62.971V142.522
		C493.525,107.806,465.275,79.556,430.557,79.556z" />
            <path d="M129.037,175.989c51.419,1.234,96.388,28.283,122.25,68.865c2.371,3.705,6.434,5.848,10.657,5.848
		c1.152,0,2.322-0.162,3.46-0.486c5.377-1.545,9.114-6.418,9.179-12.006c0-0.504,0-1.01,0-1.51
		c0-81.148-64.853-147.023-145.527-148.957V64.155c0-5.492-3.038-10.512-7.879-13.078c-2.16-1.139-4.533-1.707-6.889-1.707
		c-2.94,0-5.848,0.88-8.35,2.584L5.751,120.526C2.162,122.98,0.018,127.041,0,131.394c-0.017,4.338,2.113,8.418,5.687,10.902
		l100.17,69.451c2.518,1.753,5.459,2.631,8.414,2.631c2.355,0,4.696-0.553,6.857-1.676c4.855-2.549,7.909-7.6,7.909-13.092V175.989z
		" />
        </g>
    </symbol>
    <symbol id="chevronDown" viewBox="0 0 407.437 407.437">
        <polygon points="386.258,91.567 203.718,273.512 21.179,91.567 0,112.815 203.718,315.87 407.437,112.815 " />
    </symbol>
    <symbol id="chevronUp" viewBox="0 0 407.436 407.436">
        <polygon points="203.718,91.567 0,294.621 21.179,315.869 203.718,133.924 386.258,315.869 407.436,294.621 " />
    </symbol>
    <symbol id="pin" viewBox="0 0 395.71 395.71">
        <path
            d="M197.849,0C122.131,0,60.531,61.609,60.531,137.329c0,72.887,124.591,243.177,129.896,250.388l4.951,6.738   c0.579,0.792,1.501,1.255,2.471,1.255c0.985,0,1.901-0.463,2.486-1.255l4.948-6.738c5.308-7.211,129.896-177.501,129.896-250.388   C335.179,61.609,273.569,0,197.849,0z M197.849,88.138c27.13,0,49.191,22.062,49.191,49.191c0,27.115-22.062,49.191-49.191,49.191   c-27.114,0-49.191-22.076-49.191-49.191C148.658,110.2,170.734,88.138,197.849,88.138z">
        </path>
    </symbol>
    <symbol id="person" viewBox="0 0 1024 1024">
        <path
            d="M78.22291438 968.30107625c0 14.21935406 9.47956969 23.69892375 23.69892374 23.69892375s23.69892375-9.47956969 23.69892375-23.69892375c0-213.33036656 173.03552063-386.36588719 386.36588625-386.36588625s386.37923813 173.03552063 386.37923907 386.36588625c0 14.21935406 9.47956969 23.69892375 23.69892281 23.69892375s23.69892375-9.47956969 23.69892375-23.69892375c0-196.74779531-132.74067469-362.66696344-310.51597969-417.19451437 90.06926062-45.03463031 151.713165-137.52051375 151.713165-244.14564282C786.96091906 155.261105 663.69981406 32 511.98664813 32S237.03908094 155.261105 237.03908094 306.96091906c0 106.66518281 61.6305525 199.1110125 151.69981406 244.14564281C208.60037281 603.25754469 78.22291438 769.17671281 78.22291438 968.30107625z m206.22736499-663.75678c0-125.62432219 101.92539844-227.56307156 227.54972063-227.56307156s227.56307156 101.99215594 227.56307156 227.56307156S637.651025 532.1474225 512 532.1474225s-227.54972063-101.92539844-227.54972063-227.60312625z m0 0" />
    </symbol>
    <symbol id="search" viewBox="0 0 20 20">
        <path fill="transparent" stroke="currentColor" stroke-linecap="round" stroke-linejoin="round" stroke-width="2"
            d="m19 19-4-4m0-7A7 7 0 1 1 1 8a7 7 0 0 1 14 0Z" />
    </symbol>
    <symbol id="cross" viewBox="0 0 14 14">
        <path stroke="currentColor" stroke-linecap="round" stroke-linejoin="round" stroke-width="2"
            d="m1 1 6 6m0 0 6 6M7 7l6-6M7 7l-6 6" />
    </symbol>
    <symbol id="group" viewBox="0 0 475.851 475.851">
        <g>
            <g>
                <g>
                    <path d="M151.549,145.274c0,23.39,9.145,50.385,24.462,72.214c17.389,24.78,39.376,38.427,61.911,38.427
				c22.534,0,44.521-13.647,61.91-38.428c15.317-21.828,24.462-48.824,24.462-72.213c0-47.626-38.746-86.372-86.372-86.372
				C190.296,58.902,151.549,97.648,151.549,145.274z M237.922,73.902c39.354,0,71.372,32.018,71.372,71.372
				c0,20.118-8.33,44.487-21.74,63.598c-14.29,20.364-32.38,32.043-49.632,32.043c-17.252,0-35.342-11.679-49.632-32.043
				c-13.41-19.11-21.741-43.479-21.741-63.598C166.549,105.919,198.567,73.902,237.922,73.902z" />
                    <path d="M302.372,239.167c-2.862-1.363-6.273-0.778-8.52,1.461c-16.775,16.728-36.117,25.569-55.935,25.569
				c-19.821,0-39.158-8.841-55.923-25.567c-2.246-2.241-5.659-2.826-8.521-1.463c-25.254,12.022-46.628,30.829-61.811,54.388
				c-15.596,24.2-23.84,52.277-23.84,81.195v0.121c0,2.116,0.894,4.134,2.461,5.556c40.492,36.722,92.922,56.945,147.633,56.945
				s107.141-20.224,147.632-56.945c1.568-1.422,2.462-3.439,2.462-5.556v-0.121c0-28.918-8.242-56.995-23.834-81.194
				C348.997,269.995,327.625,251.188,302.372,239.167z M237.918,422.372c-49.861,0-97.685-18.023-135.057-50.827
				c0.583-24.896,7.956-48.986,21.411-69.865c12.741-19.77,30.322-35.823,51.058-46.676c18.746,17.157,40.285,26.193,62.588,26.193
				c22.3,0,43.842-9.035,62.598-26.193c20.734,10.853,38.313,26.906,51.053,46.676c13.452,20.877,20.823,44.968,21.406,69.865
				C335.602,404.349,287.778,422.372,237.918,422.372z" />
                    <path d="M455.077,243.89c-13.23-20.532-31.856-36.923-53.864-47.399c-2.862-1.363-6.275-0.778-8.52,1.461
				c-14.312,14.271-30.79,21.815-47.654,21.815c-9.142,0-18.184-2.205-26.873-6.553c-3.706-1.853-8.209-0.353-10.063,3.351
				c-1.854,3.705-0.354,8.21,3.351,10.063c10.793,5.401,22.093,8.139,33.586,8.139c19.335,0,38.004-7.737,54.288-22.437
				c17.504,9.298,32.348,22.934,43.141,39.685c11.445,17.763,17.756,38.243,18.338,59.416
				c-18.524,16.158-40.553,28.449-63.91,35.634c-3.959,1.218-6.182,5.415-4.964,9.374c0.992,3.225,3.96,5.297,7.166,5.297
				c0.73,0,1.474-0.107,2.208-0.333c26.509-8.154,51.435-22.362,72.082-41.088c1.568-1.422,2.462-3.439,2.462-5.556v-0.105
				C475.85,289.45,468.666,264.98,455.077,243.89z" />
                    <path
                        d="M130.493,210.473c7.93,0,15.841-1.934,23.516-5.748c3.709-1.843,5.222-6.345,3.379-10.054
				c-1.843-3.71-6.345-5.222-10.054-3.379c-5.582,2.774-11.248,4.18-16.841,4.18c-14.541,0-29.836-9.914-41.964-27.2
				c-11.449-16.318-18.562-37.112-18.562-54.266c0-33.375,27.152-60.527,60.526-60.527c15.752,0,30.67,6.022,42.006,16.958
				c2.98,2.875,7.729,2.792,10.604-0.19c2.876-2.981,2.791-7.729-0.19-10.604c-14.146-13.647-32.763-21.163-52.42-21.163
				c-41.646,0-75.526,33.881-75.526,75.527c0,20.38,7.957,43.887,21.283,62.881C91.445,198.545,110.709,210.473,130.493,210.473z" />
                    <path
                        d="M61.034,340.143c-16.753-7.222-32.209-16.972-45.989-29.004c0.582-21.112,6.875-41.53,18.291-59.243
				c10.761-16.698,25.561-30.294,43.01-39.566c16.239,14.662,34.856,22.376,54.139,22.376c11.587,0,22.969-2.785,33.829-8.277
				c3.696-1.87,5.177-6.381,3.308-10.078c-1.869-3.697-6.381-5.177-10.078-3.308c-8.742,4.421-17.846,6.663-27.059,6.663
				c-16.811,0-33.238-7.522-47.504-21.754c-2.246-2.24-5.658-2.825-8.521-1.462c-21.954,10.451-40.534,26.8-53.733,47.28
				C7.167,264.811,0,289.221,0,314.362v0.103c0,2.116,0.894,4.134,2.461,5.556c15.629,14.174,33.338,25.579,52.634,33.897
				c0.968,0.417,1.975,0.615,2.966,0.615c2.904,0,5.668-1.697,6.891-4.533C66.591,346.196,64.837,341.783,61.034,340.143z" />
                    <path d="M69.854,351.003c-2.671,6.443,4.532,12.832,10.617,9.387c3.238-1.834,4.683-5.937,3.227-9.385
				C81.291,344.86,72.32,345.053,69.854,351.003z" />
                    <path d="M83.698,351.005C83.888,351.455,83.518,350.545,83.698,351.005L83.698,351.005z" />
                    <path
                        d="M303.345,70.438c11.336-10.936,26.254-16.958,42.006-16.958c33.374,0,60.526,27.152,60.526,60.527
				c0,17.154-7.112,37.947-18.563,54.266c-12.128,17.286-27.424,27.2-41.964,27.2c-5.593,0-11.259-1.406-16.841-4.18
				c-3.711-1.844-8.212-0.331-10.055,3.379c-1.843,3.709-0.33,8.21,3.379,10.054c7.675,3.814,15.587,5.748,23.517,5.748
				c19.783,0,39.048-11.927,54.243-33.585c13.327-18.994,21.283-42.501,21.283-62.881c0-41.646-33.881-75.527-75.526-75.527
				c-19.657,0-38.273,7.516-52.42,21.163c-2.981,2.875-3.066,7.624-0.19,10.604C295.614,73.229,300.363,73.314,303.345,70.438z" />
                </g>
            </g>
        </g>
    </symbol>
    <symbol id="alert" fill="transparent" shape-rendering="geometricPrecision" stroke="currentColor"
        stroke-linecap="round" stroke-linejoin="round" stroke-width="1.5" viewBox="0 0 24 24">
        <path d="M7.86 2h8.28L22 7.86v8.28L16.14 22H7.86L2 16.14V7.86L7.86 2z"></path>
        <path d="M12 8v4"></path>
        <path d="M12 16h.01"></path>
    </symbol>
    <symbol id="share" viewBox="0 0 481.6 481.6">
        <g>
            <path d="M381.6,309.4c-27.7,0-52.4,13.2-68.2,33.6l-132.3-73.9c3.1-8.9,4.8-18.5,4.8-28.4c0-10-1.7-19.5-4.9-28.5l132.2-73.8
		c15.7,20.5,40.5,33.8,68.3,33.8c47.4,0,86.1-38.6,86.1-86.1S429,0,381.5,0s-86.1,38.6-86.1,86.1c0,10,1.7,19.6,4.9,28.5
		l-132.1,73.8c-15.7-20.6-40.5-33.8-68.3-33.8c-47.4,0-86.1,38.6-86.1,86.1s38.7,86.1,86.2,86.1c27.8,0,52.6-13.3,68.4-33.9
		l132.2,73.9c-3.2,9-5,18.7-5,28.7c0,47.4,38.6,86.1,86.1,86.1s86.1-38.6,86.1-86.1S429.1,309.4,381.6,309.4z M381.6,27.1
		c32.6,0,59.1,26.5,59.1,59.1s-26.5,59.1-59.1,59.1s-59.1-26.5-59.1-59.1S349.1,27.1,381.6,27.1z M100,299.8
		c-32.6,0-59.1-26.5-59.1-59.1s26.5-59.1,59.1-59.1s59.1,26.5,59.1,59.1S132.5,299.8,100,299.8z M381.6,454.5
		c-32.6,0-59.1-26.5-59.1-59.1c0-32.6,26.5-59.1,59.1-59.1s59.1,26.5,59.1,59.1C440.7,428,414.2,454.5,381.6,454.5z" />
        </g>
    </symbol>
    <symbol id="copy" viewBox="0 0 115.77 122.88">
        <g>
            <path
                d="M89.62,13.96v7.73h12.19h0.01v0.02c3.85,0.01,7.34,1.57,9.86,4.1c2.5,2.51,4.06,5.98,4.07,9.82h0.02v0.02 v73.27v0.01h-0.02c-0.01,3.84-1.57,7.33-4.1,9.86c-2.51,2.5-5.98,4.06-9.82,4.07v0.02h-0.02h-61.7H40.1v-0.02 c-3.84-0.01-7.34-1.57-9.86-4.1c-2.5-2.51-4.06-5.98-4.07-9.82h-0.02v-0.02V92.51H13.96h-0.01v-0.02c-3.84-0.01-7.34-1.57-9.86-4.1 c-2.5-2.51-4.06-5.98-4.07-9.82H0v-0.02V13.96v-0.01h0.02c0.01-3.85,1.58-7.34,4.1-9.86c2.51-2.5,5.98-4.06,9.82-4.07V0h0.02h61.7 h0.01v0.02c3.85,0.01,7.34,1.57,9.86,4.1c2.5,2.51,4.06,5.98,4.07,9.82h0.02V13.96L89.62,13.96z M79.04,21.69v-7.73v-0.02h0.02 c0-0.91-0.39-1.75-1.01-2.37c-0.61-0.61-1.46-1-2.37-1v0.02h-0.01h-61.7h-0.02v-0.02c-0.91,0-1.75,0.39-2.37,1.01 c-0.61,0.61-1,1.46-1,2.37h0.02v0.01v64.59v0.02h-0.02c0,0.91,0.39,1.75,1.01,2.37c0.61,0.61,1.46,1,2.37,1v-0.02h0.01h12.19V35.65 v-0.01h0.02c0.01-3.85,1.58-7.34,4.1-9.86c2.51-2.5,5.98-4.06,9.82-4.07v-0.02h0.02H79.04L79.04,21.69z M105.18,108.92V35.65v-0.02 h0.02c0-0.91-0.39-1.75-1.01-2.37c-0.61-0.61-1.46-1-2.37-1v0.02h-0.01h-61.7h-0.02v-0.02c-0.91,0-1.75,0.39-2.37,1.01 c-0.61,0.61-1,1.46-1,2.37h0.02v0.01v73.27v0.02h-0.02c0,0.91,0.39,1.75,1.01,2.37c0.61,0.61,1.46,1,2.37,1v-0.02h0.01h61.7h0.02 v0.02c0.91,0,1.75-0.39,2.37-1.01c0.61-0.61,1-1.46,1-2.37h-0.02V108.92L105.18,108.92z" />
        </g>
    </symbol>
    <symbol id="check" viewBox="0 0 17.837 17.837">
        <g>
            <path
                d="M16.145,2.571c-0.272-0.273-0.718-0.273-0.99,0L6.92,10.804l-4.241-4.27   c-0.272-0.274-0.715-0.274-0.989,0L0.204,8.019c-0.272,0.271-0.272,0.717,0,0.99l6.217,6.258c0.272,0.271,0.715,0.271,0.99,0   L17.63,5.047c0.276-0.273,0.276-0.72,0-0.994L16.145,2.571z" />
        </g>
    </symbol>
    <symbol id="externalLink" viewBox="4 3 17 17" fill="none">
        <g>
            <path
                d="M10.0002 5H8.2002C7.08009 5 6.51962 5 6.0918 5.21799C5.71547 5.40973 5.40973 5.71547 5.21799 6.0918C5 6.51962 5 7.08009 5 8.2002V15.8002C5 16.9203 5 17.4801 5.21799 17.9079C5.40973 18.2842 5.71547 18.5905 6.0918 18.7822C6.5192 19 7.07899 19 8.19691 19H15.8031C16.921 19 17.48 19 17.9074 18.7822C18.2837 18.5905 18.5905 18.2839 18.7822 17.9076C19 17.4802 19 16.921 19 15.8031V14M20 9V4M20 4H15M20 4L13 11"
                stroke="currentColor" stroke-width="2" stroke-linecap="round" stroke-linejoin="round" />
        </g>
    </symbol>
    <symbol id="threeDots" viewBox="0 0 16 16">
        <path
            d="M9.5 13a1.5 1.5 0 1 1-3 0 1.5 1.5 0 0 1 3 0zm0-5a1.5 1.5 0 1 1-3 0 1.5 1.5 0 0 1 3 0zm0-5a1.5 1.5 0 1 1-3 0 1.5 1.5 0 0 1 3 0z" />
    </symbol>
    <symbol id="save" viewBox="0 0 512 512">
        <g>
            <g>
                <path d="M440.125,0H0v512h512V71.875L440.125,0z M281.6,31.347h31.347v94.041H281.6V31.347z M136.359,31.347h113.894v125.388
			h94.041V31.347h32.392v156.735H136.359V31.347z M417.959,480.653H94.041V344.816h323.918V480.653z M417.959,313.469H94.041
			v-31.347h323.918V313.469z M480.653,480.653h-31.347V250.775H62.694v229.878H31.347V31.347h73.665v188.082h303.02V31.347h19.108
			l53.512,53.512V480.653z" />
            </g>
        </g>
    </symbol>
    <symbol id="info" viewBox="0 0 416.979 416.979">
        <g>
            <path
                d="M356.004,61.156c-81.37-81.47-213.377-81.551-294.848-0.182c-81.47,81.371-81.552,213.379-0.181,294.85
		c81.369,81.47,213.378,81.551,294.849,0.181C437.293,274.636,437.375,142.626,356.004,61.156z M237.6,340.786
		c0,3.217-2.607,5.822-5.822,5.822h-46.576c-3.215,0-5.822-2.605-5.822-5.822V167.885c0-3.217,2.607-5.822,5.822-5.822h46.576
		c3.215,0,5.822,2.604,5.822,5.822V340.786z M208.49,137.901c-18.618,0-33.766-15.146-33.766-33.765
		c0-18.617,15.147-33.766,33.766-33.766c18.619,0,33.766,15.148,33.766,33.766C242.256,122.755,227.107,137.901,208.49,137.901z" />
        </g>
    </symbol>
</svg>