<svg xmlns="http://www.w3.org/2000/svg" viewBox="0 0 201 338.74">
    <defs>
        <style>
            .cls-1 {
                fill: #8d0126;
            }
        </style>
    </defs>
    <path class="cls-1"
        d="M164.87,108.13c0,8.71,9,15.81,17.81,15.81a15.8,15.8,0,0,0,14.71-10l1,.5a15,15,0,1,0,15-14.91,15.33,15.33,0,0,0-7.4,2,16.13,16.13,0,0,1,29.22-.61l-.51-8.4,18.42-19.21-21.72,75.55H83.91L62.1,73.31l18,19.21v8.4a16.13,16.13,0,0,1,29.22.61,15.37,15.37,0,0,0-7.41-2,15,15,0,1,0,15,14.91l1-.5a15.71,15.71,0,0,0,14.71,10c8.71,0,17.52-7.1,17.52-15.81,0-7-5.11-12.61-12.11-12.61a12.59,12.59,0,0,0-6.91,2.09,15,15,0,0,1,6.71-9.6c3.3-2.1,7-1.6,10.51-1.1l4,1.41-2.2-3.41-2.11-3,9.41-25.22L167,81.91l-2.21,3-2.09,3.41,4-1.41c3.51-.5,7.21-1,10.41,1.1a15.11,15.11,0,0,1,6.81,9.6A12.82,12.82,0,0,0,177,95.52c-7,0-12.1,5.6-12.1,12.61"
        transform="translate(-56.69 -56.69)" />
    <path class="cls-1"
        d="M228.41,369c19.31-17.52,30-40.73,30-65.64l.2-125.49v-1.7H232.82v1.7l-.21,125.49c0,17.5-7.6,33.92-21.51,46.43-14.21,12.8-33.22,19.81-53.54,19.81-41.23,0-74.85-29.52-75-65.85h96.76l-25.51-25.51H82.51V252.73h20.81l25.62-25.42H82.51V201.69h71.25L180,176.18H56.69V303.37c0,50.83,45.23,92.06,100.87,92.06,26.72,0,51.84-9.41,70.85-26.42"
        transform="translate(-56.69 -56.69)" />
    <path class="cls-1"
        d="M192,303.76h35.62S183.08,259.14,164,240.12c17.91-17.81,56.43-56.44,63.94-64H191.78l-53.63,53.64-10.21,10.31c21.32,21.21,42.73,42.33,64.05,63.64"
        transform="translate(-56.69 -56.69)" />
    <path class="cls-1"
        d="M126.24,331.19v-4.31c0-.8,0-1.2-.5-1.2a23.85,23.85,0,0,0-3.8,1.6c-.1,0-.31.1-.4.1a.45.45,0,0,1-.3-.4c0-.2.2-.3.3-.4s6.5-4.21,7.6-5.1a1.71,1.71,0,0,1,.9-.4c.31,0,.41.29.41.7,0,.2-.21,3.5-.21,8.5v6.1c0,3.11,0,5.91.11,7.41.1,1,.29,1.5,1.3,1.8a17.65,17.65,0,0,0,2.2.1c.1,0,.3.1.3.4s-.2.3-.5.3c-2.5,0-4.61-.1-5.51-.1s-3.5.1-5.71.1c-.29,0-.49-.1-.49-.3s.1-.4.2-.4a13.9,13.9,0,0,0,2.7-.19c1-.21,1.2-.71,1.3-1.71.1-1.5.2-4.3.2-7.41Z"
        transform="translate(-56.69 -56.69)" />
    <path class="cls-1"
        d="M154.36,330c0,9.2-8,15-12.11,16.91a1.25,1.25,0,0,1-.59.1.32.32,0,0,1-.31-.29.68.68,0,0,1,.4-.51,18.55,18.55,0,0,0,8.5-15.31c0-5.8-2.39-8.31-5-8.31-2.3,0-3.9,2.1-3.9,4.9,0,5,3.2,6.21,4.4,6.21a5.18,5.18,0,0,0,2.2-.39c.41-.21.51-.41.71-.41s.2.1.2.3a.8.8,0,0,1-.2.4,6,6,0,0,1-4.31,1.51,6.37,6.37,0,0,1-6.7-6.42c0-4.39,3.4-7.59,8.4-7.59,5.41,0,8.31,3.9,8.31,8.9"
        transform="translate(-56.69 -56.69)" />
    <path class="cls-1"
        d="M158.16,346.29a.53.53,0,0,1-.49-.49c0-.21.39-.51.7-.81,4.6-4.1,11.1-9.21,11.1-16.11,0-5.2-2.81-6.31-4.5-6.31a4.85,4.85,0,0,0-3.5,1.2,6,6,0,0,0-1.31,3.21c0,.29-.1.6-.5.6q-.14,0-.3-.6c0-.3-.2-3.1-.2-4,0-.3.1-.41.41-.71a13.71,13.71,0,0,1,6-1.19c5.8,0,8.2,3.1,8.2,7,0,6.4-7,11.9-11.31,15.31-.09.1-.09.2.11.2h2.19c.61,0,4.51,0,5.71-.2a3.84,3.84,0,0,0,3.71-2.91c.1-.39.19-.5.4-.5s.29.31.29.61a27.82,27.82,0,0,1-1,4.7c-.2.9-.79,1-2.8,1Z"
        transform="translate(-56.69 -56.69)" />
    <path class="cls-1"
        d="M180.18,346.29c-.6-.3-.6-.6-.6-1.3a29.46,29.46,0,0,1,.1-4.2c.1-.31.1-.6.4-.6s.2.19.2.6c0,3.5,2.2,4.4,4.5,4.4,2.6,0,5.51-1.7,5.51-6,0-5.31-5.81-7.41-8.41-7.8-.4-.11-.6-.2-.6-.7l.8-8.62c0-.39.3-.5.6-.5h8.1a9.11,9.11,0,0,0,1.81-.09,3.39,3.39,0,0,0,.7-.11c.2,0,.3.11.3.61a30.81,30.81,0,0,1-.41,4.2c-.09.2-.19.4-.4.4s-.29-.2-.29-.4c0-.9-.21-1.8-2.81-1.8h-6l-.5,4c4.9.8,10.91,3.51,10.91,9.2,0,4.41-3.21,9.21-10.81,9.21a9.59,9.59,0,0,1-3.1-.5"
        transform="translate(-56.69 -56.69)" />
</svg>